<?xml version="1.0" encoding="utf-8"?>
<!-- Generator: Adobe Illustrator 23.0.2, SVG Export Plug-In . SVG Version: 6.00 Build 0)  -->
<svg version="1.1" id="Capa_1" xmlns="http://www.w3.org/2000/svg" xmlns:xlink="http://www.w3.org/1999/xlink" x="0px" y="0px"
	 viewBox="0 0 512 512" style="enable-background:new 0 0 512 512;" xml:space="preserve">
<style type="text/css">
	.st0{fill:#F5CD79;}
</style>
<g>
	<g>
		<path class="st0" d="M439,19.5H73c-40.3,0-73,32.8-73,73v247c0,40.3,32.8,73,73,73h28.7l0.6,64.5c0.1,5.9,3.5,11.3,8.8,13.9
			c2.2,1.1,4.5,1.6,6.8,1.6c3.4,0,6.8-1.1,9.6-3.3l99.4-76.7H439c40.3,0,73-32.8,73-73v-247C512,52.2,479.2,19.5,439,19.5z
			 M480.7,339.5c0,23-18.7,41.7-41.7,41.7H221.6c-3.5,0-6.8,1.1-9.6,3.3l-78.7,60.8l-0.4-48.5c-0.1-8.6-7.1-15.5-15.7-15.5H73
			c-23,0-41.7-18.7-41.7-41.7v-247c0-23,18.7-41.7,41.7-41.7H439c23,0,41.7,18.7,41.7,41.7L480.7,339.5L480.7,339.5z"/>
	</g>
</g>
</svg>
