<?xml version="1.0" encoding="utf-8"?>
<!-- Generator: Adobe Illustrator 23.0.2, SVG Export Plug-In . SVG Version: 6.00 Build 0)  -->
<svg version="1.1" id="Calque_1" xmlns="http://www.w3.org/2000/svg" xmlns:xlink="http://www.w3.org/1999/xlink" x="0px" y="0px"
	 viewBox="0 0 512 512" style="enable-background:new 0 0 512 512;" xml:space="preserve">
<style type="text/css">
	.st0{fill:#F5CD79;}
</style>
<path class="st0" d="M482,146h-17.5L290.4,54.6C287.4,38.4,273.1,26,256,26s-31.4,12.4-34.4,28.6L47.5,146H30c-16.5,0-30,13.5-30,30
	v280c0,16.5,13.5,30,30,30h452c16.5,0,30-13.5,30-30V176C512,159.5,498.5,146,482,146z M256,46c8.3,0,15,6.7,15,15s-6.7,15-15,15
	s-15-6.7-15-15S247.7,46,256,46z M492,456c0,5.5-4.5,10-10,10H30c-5.5,0-10-4.5-10-10V176c0-5.5,4.5-10,10-10h20h0h0h40
	c5.5,0,10-4.5,10-10c0-5.3-4.2-9.7-9.5-10l133.8-70.2C229.9,87.7,242,96,256,96s26.1-8.3,31.7-20.2L421.4,146H170
	c-5.5,0-10,4.5-10,10s4.5,10,10,10h292h0h0h20c5.5,0,10,4.5,10,10V456z"/>
<path class="st0" d="M462,186H50c-5.5,0-10,4.5-10,10v240c0,5.5,4.5,10,10,10h292c5.5,0,10-4.5,10-10c0-5.5-4.5-10-10-10H60V206h392
	v220h-30c-5.5,0-10,4.5-10,10c0,5.5,4.5,10,10,10h40c5.5,0,10-4.5,10-10V196C472,190.5,467.5,186,462,186z"/>
<path class="st0" d="M130,166c5.5,0,10-4.5,10-10c0-5.5-4.5-10-10-10h0c-5.5,0-10,4.5-10,10C120,161.5,124.5,166,130,166z"/>
<path class="st0" d="M382,426L382,426c-5.5,0-10,4.5-10,10c0,5.5,4.5,10,10,10s10-4.5,10-10C392,430.5,387.5,426,382,426z"/>
<path class="st0" d="M130.7,347.2h-14.6c-5.5,0-10,4.5-10,10s4.5,10,10,10h14.6c16.9,0,30.6-13.7,30.6-30.6
	c0-16.9-13.7-30.6-30.6-30.6h-4c-5.9,0-10.6-4.8-10.6-10.6c0-5.9,4.8-10.6,10.6-10.6h14.6c5.5,0,10-4.5,10-10s-4.5-10-10-10h-14.6
	c-16.9,0-30.6,13.7-30.6,30.6c0,16.9,13.7,30.6,30.6,30.6h4c5.9,0,10.6,4.8,10.6,10.6C141.3,342.5,136.5,347.2,130.7,347.2z"/>
<path class="st0" d="M237.4,367.2c5.5,0,10-4.5,10-10v-57.4c0-19.3-15.7-35-35-35c-19.3,0-35,15.7-35,35v57.4c0,5.5,4.5,10,10,10
	c5.5,0,10-4.5,10-10v-18.7h30v18.7C227.4,362.7,231.9,367.2,237.4,367.2z M197.4,318.5v-18.7c0-8.3,6.7-15,15-15c8.3,0,15,6.7,15,15
	v18.7H197.4z"/>
<path class="st0" d="M275.9,264.8c-5.5,0-10,4.5-10,10v82.4c0,5.5,4.5,10,10,10h50c5.5,0,10-4.5,10-10s-4.5-10-10-10h-40v-72.4
	C285.9,269.3,281.5,264.8,275.9,264.8z"/>
<path class="st0" d="M415.9,357.2c0-5.5-4.5-10-10-10h-35.2V326h17.6c5.5,0,10-4.5,10-10s-4.5-10-10-10h-17.6v-21.2h35.2
	c5.5,0,10-4.5,10-10s-4.5-10-10-10h-45.2c-5.5,0-10,4.5-10,10v82.4c0,5.5,4.5,10,10,10h45.2C411.4,367.2,415.9,362.7,415.9,357.2z"
	/>
</svg>
